<mxfile host="65bd71144e">
    <diagram id="94W7TybBtprLZWba6eNM" name="HSMS Message">
        <mxGraphModel dx="1715" dy="1144" grid="1" gridSize="10" guides="1" tooltips="1" connect="1" arrows="1" fold="1" page="1" pageScale="1" pageWidth="827" pageHeight="1169" math="0" shadow="0">
            <root>
                <mxCell id="0"/>
                <mxCell id="1" parent="0"/>
                <mxCell id="8" style="edgeStyle=elbowEdgeStyle;html=1;exitX=1;exitY=0.5;exitDx=0;exitDy=0;entryX=0;entryY=0.5;entryDx=0;entryDy=0;fontFamily=Comic Sans MS;fontSize=12;fontColor=default;" parent="1" source="2" target="4" edge="1">
                    <mxGeometry relative="1" as="geometry"/>
                </mxCell>
                <mxCell id="9" style="edgeStyle=none;html=1;entryX=0;entryY=0.5;entryDx=0;entryDy=0;fontFamily=Comic Sans MS;fontSize=12;fontColor=default;exitX=1;exitY=0.5;exitDx=0;exitDy=0;" parent="1" source="2" target="5" edge="1">
                    <mxGeometry relative="1" as="geometry"/>
                </mxCell>
                <mxCell id="10" style="edgeStyle=elbowEdgeStyle;html=1;exitX=1;exitY=0.5;exitDx=0;exitDy=0;entryX=0;entryY=0.5;entryDx=0;entryDy=0;fontFamily=Comic Sans MS;fontSize=12;fontColor=default;" parent="1" source="2" target="6" edge="1">
                    <mxGeometry relative="1" as="geometry"/>
                </mxCell>
                <mxCell id="2" value="HSMS Message" style="rounded=1;whiteSpace=wrap;html=1;fontFamily=Comic Sans MS;fillColor=#60a917;fontColor=#ffffff;strokeColor=#2D7600;" parent="1" vertex="1">
                    <mxGeometry x="80" y="170" width="120" height="40" as="geometry"/>
                </mxCell>
                <mxCell id="4" value="Message Length" style="rounded=1;whiteSpace=wrap;html=1;fontFamily=Comic Sans MS;fillColor=#1ba1e2;fontColor=#ffffff;strokeColor=#006EAF;" parent="1" vertex="1">
                    <mxGeometry x="280" y="90" width="120" height="40" as="geometry"/>
                </mxCell>
                <mxCell id="5" value="Message Header" style="rounded=1;whiteSpace=wrap;html=1;fontFamily=Comic Sans MS;fillColor=#1ba1e2;fontColor=#ffffff;strokeColor=#006EAF;" parent="1" vertex="1">
                    <mxGeometry x="280" y="170" width="120" height="40" as="geometry"/>
                </mxCell>
                <mxCell id="12" value="" style="edgeStyle=elbowEdgeStyle;html=1;fontFamily=Comic Sans MS;fontSize=12;fontColor=default;" parent="1" source="6" target="11" edge="1">
                    <mxGeometry relative="1" as="geometry"/>
                </mxCell>
                <mxCell id="15" style="edgeStyle=elbowEdgeStyle;html=1;exitX=1;exitY=0.5;exitDx=0;exitDy=0;fontFamily=Comic Sans MS;fontSize=12;fontColor=default;" parent="1" source="6" target="14" edge="1">
                    <mxGeometry relative="1" as="geometry"/>
                </mxCell>
                <mxCell id="6" value="Message Text" style="rounded=1;whiteSpace=wrap;html=1;fontFamily=Comic Sans MS;fillColor=#1ba1e2;fontColor=#ffffff;strokeColor=#006EAF;" parent="1" vertex="1">
                    <mxGeometry x="280" y="250" width="120" height="40" as="geometry"/>
                </mxCell>
                <mxCell id="11" value="Item Header" style="rounded=1;whiteSpace=wrap;html=1;fontFamily=Comic Sans MS;fillColor=#e3c800;fontColor=#000000;strokeColor=#B09500;" parent="1" vertex="1">
                    <mxGeometry x="480" y="220" width="120" height="40" as="geometry"/>
                </mxCell>
                <mxCell id="14" value="Item Body" style="rounded=1;whiteSpace=wrap;html=1;fontFamily=Comic Sans MS;fillColor=#e3c800;fontColor=#000000;strokeColor=#B09500;" parent="1" vertex="1">
                    <mxGeometry x="480" y="290" width="120" height="40" as="geometry"/>
                </mxCell>
            </root>
        </mxGraphModel>
    </diagram>
    <diagram id="aKSKUH6yssJEv0WV4GJp" name="SEMI Entity">
        <mxGraphModel dx="1715" dy="1144" grid="1" gridSize="10" guides="1" tooltips="1" connect="1" arrows="1" fold="1" page="1" pageScale="1" pageWidth="827" pageHeight="1169" background="none" math="0" shadow="1">
            <root>
                <mxCell id="0"/>
                <mxCell id="1" parent="0"/>
                <mxCell id="FnUwr-iDmBsUacXUg6TI-3" value="" style="edgeStyle=elbowEdgeStyle;html=1;fontFamily=Comic Sans MS;fontSize=12;fontColor=default;rounded=1;" parent="1" source="FnUwr-iDmBsUacXUg6TI-1" target="FnUwr-iDmBsUacXUg6TI-2" edge="1">
                    <mxGeometry relative="1" as="geometry"/>
                </mxCell>
                <mxCell id="FnUwr-iDmBsUacXUg6TI-5" value="" style="edgeStyle=elbowEdgeStyle;html=1;fontFamily=Comic Sans MS;fontSize=12;fontColor=default;rounded=1;" parent="1" source="FnUwr-iDmBsUacXUg6TI-1" target="FnUwr-iDmBsUacXUg6TI-4" edge="1">
                    <mxGeometry relative="1" as="geometry"/>
                </mxCell>
                <mxCell id="FnUwr-iDmBsUacXUg6TI-1" value="Semi Entity" style="rounded=1;whiteSpace=wrap;html=1;fontFamily=Comic Sans MS;fillColor=#60a917;fontColor=#ffffff;strokeColor=#2D7600;" parent="1" vertex="1">
                    <mxGeometry x="40" y="80" width="120" height="40" as="geometry"/>
                </mxCell>
                <mxCell id="FnUwr-iDmBsUacXUg6TI-17" value="" style="edgeStyle=elbowEdgeStyle;html=1;fontFamily=Comic Sans MS;fontSize=12;fontColor=default;rounded=1;" parent="1" source="FnUwr-iDmBsUacXUg6TI-2" target="FnUwr-iDmBsUacXUg6TI-16" edge="1">
                    <mxGeometry relative="1" as="geometry"/>
                </mxCell>
                <mxCell id="FnUwr-iDmBsUacXUg6TI-2" value="Send Data Message" style="rounded=1;whiteSpace=wrap;html=1;fontFamily=Comic Sans MS;fillColor=#1ba1e2;fontColor=#ffffff;strokeColor=#006EAF;" parent="1" vertex="1">
                    <mxGeometry x="240" y="40" width="120" height="40" as="geometry"/>
                </mxCell>
                <mxCell id="FnUwr-iDmBsUacXUg6TI-11" style="edgeStyle=elbowEdgeStyle;html=1;fontFamily=Comic Sans MS;fontSize=12;fontColor=default;rounded=1;" parent="1" source="FnUwr-iDmBsUacXUg6TI-4" target="FnUwr-iDmBsUacXUg6TI-6" edge="1">
                    <mxGeometry relative="1" as="geometry"/>
                </mxCell>
                <mxCell id="FnUwr-iDmBsUacXUg6TI-12" style="edgeStyle=elbowEdgeStyle;html=1;fontFamily=Comic Sans MS;fontSize=12;fontColor=default;rounded=1;" parent="1" source="FnUwr-iDmBsUacXUg6TI-4" target="FnUwr-iDmBsUacXUg6TI-7" edge="1">
                    <mxGeometry relative="1" as="geometry"/>
                </mxCell>
                <mxCell id="FnUwr-iDmBsUacXUg6TI-13" style="edgeStyle=elbowEdgeStyle;html=1;fontFamily=Comic Sans MS;fontSize=12;fontColor=default;rounded=1;" parent="1" source="FnUwr-iDmBsUacXUg6TI-4" target="FnUwr-iDmBsUacXUg6TI-8" edge="1">
                    <mxGeometry relative="1" as="geometry"/>
                </mxCell>
                <mxCell id="FnUwr-iDmBsUacXUg6TI-14" style="edgeStyle=elbowEdgeStyle;html=1;fontFamily=Comic Sans MS;fontSize=12;fontColor=default;rounded=1;" parent="1" source="FnUwr-iDmBsUacXUg6TI-4" target="FnUwr-iDmBsUacXUg6TI-9" edge="1">
                    <mxGeometry relative="1" as="geometry"/>
                </mxCell>
                <mxCell id="FnUwr-iDmBsUacXUg6TI-15" style="edgeStyle=elbowEdgeStyle;html=1;fontFamily=Comic Sans MS;fontSize=12;fontColor=default;rounded=1;" parent="1" source="FnUwr-iDmBsUacXUg6TI-4" target="FnUwr-iDmBsUacXUg6TI-10" edge="1">
                    <mxGeometry relative="1" as="geometry"/>
                </mxCell>
                <mxCell id="FnUwr-iDmBsUacXUg6TI-4" value="Send Control Message" style="rounded=1;whiteSpace=wrap;html=1;fontFamily=Comic Sans MS;fillColor=#1ba1e2;fontColor=#ffffff;strokeColor=#006EAF;" parent="1" vertex="1">
                    <mxGeometry x="240" y="120" width="120" height="40" as="geometry"/>
                </mxCell>
                <mxCell id="FnUwr-iDmBsUacXUg6TI-6" value="Select" style="rounded=1;whiteSpace=wrap;html=1;fontFamily=Comic Sans MS;strokeColor=#C73500;fontSize=12;fontColor=#000000;fillColor=#fa6800;" parent="1" vertex="1">
                    <mxGeometry x="440" y="120" width="120" height="40" as="geometry"/>
                </mxCell>
                <mxCell id="FnUwr-iDmBsUacXUg6TI-7" value="DeSelect" style="rounded=1;whiteSpace=wrap;html=1;fontFamily=Comic Sans MS;strokeColor=#C73500;fontSize=12;fontColor=#000000;fillColor=#fa6800;" parent="1" vertex="1">
                    <mxGeometry x="440" y="200" width="120" height="40" as="geometry"/>
                </mxCell>
                <mxCell id="FnUwr-iDmBsUacXUg6TI-8" value="LinkTest" style="rounded=1;whiteSpace=wrap;html=1;fontFamily=Comic Sans MS;strokeColor=#C73500;fontSize=12;fontColor=#000000;fillColor=#fa6800;" parent="1" vertex="1">
                    <mxGeometry x="440" y="280" width="120" height="40" as="geometry"/>
                </mxCell>
                <mxCell id="FnUwr-iDmBsUacXUg6TI-9" value="Reject" style="rounded=1;whiteSpace=wrap;html=1;fontFamily=Comic Sans MS;strokeColor=#C73500;fontSize=12;fontColor=#000000;fillColor=#fa6800;" parent="1" vertex="1">
                    <mxGeometry x="440" y="360" width="120" height="40" as="geometry"/>
                </mxCell>
                <mxCell id="FnUwr-iDmBsUacXUg6TI-10" value="Separate" style="rounded=1;whiteSpace=wrap;html=1;fontFamily=Comic Sans MS;strokeColor=#C73500;fontSize=12;fontColor=#000000;fillColor=#fa6800;" parent="1" vertex="1">
                    <mxGeometry x="440" y="440" width="120" height="40" as="geometry"/>
                </mxCell>
                <mxCell id="FnUwr-iDmBsUacXUg6TI-16" value="Stream and Function" style="rounded=1;whiteSpace=wrap;html=1;fontFamily=Comic Sans MS;fillColor=#e3c800;fontColor=#000000;strokeColor=#B09500;" parent="1" vertex="1">
                    <mxGeometry x="440" y="40" width="120" height="40" as="geometry"/>
                </mxCell>
            </root>
        </mxGraphModel>
    </diagram>
    <diagram id="VadHhpZINvzQma_4LO2f" name="Transaction">
        <mxGraphModel dx="1715" dy="1144" grid="1" gridSize="10" guides="1" tooltips="1" connect="1" arrows="1" fold="1" page="1" pageScale="1" pageWidth="827" pageHeight="1169" math="0" shadow="0">
            <root>
                <mxCell id="0"/>
                <mxCell id="1" parent="0"/>
                <mxCell id="eeLe8AEi7shUbSsySQqD-1" value="&lt;h1&gt;Transaction 会话事务&lt;/h1&gt;&lt;p&gt;由主消息和次消息组成。&lt;/p&gt;" style="text;html=1;strokeColor=none;fillColor=none;spacing=5;spacingTop=-20;whiteSpace=wrap;overflow=hidden;rounded=0;" parent="1" vertex="1">
                    <mxGeometry x="40" y="40" width="290" height="80" as="geometry"/>
                </mxCell>
                <mxCell id="eeLe8AEi7shUbSsySQqD-2" value="连接SECS实体" style="rounded=1;whiteSpace=wrap;html=1;fontFamily=Comic Sans MS;fillColor=#60a917;fontColor=#ffffff;strokeColor=#2D7600;" parent="1" vertex="1">
                    <mxGeometry x="40" y="160" width="120" height="40" as="geometry"/>
                </mxCell>
            </root>
        </mxGraphModel>
    </diagram>
    <diagram id="j7OupbRzkjOBTRSpLezw" name="连接功能">
        <mxGraphModel dx="1715" dy="1144" grid="1" gridSize="10" guides="1" tooltips="1" connect="1" arrows="1" fold="1" page="1" pageScale="1" pageWidth="827" pageHeight="1169" math="0" shadow="0">
            <root>
                <mxCell id="0"/>
                <mxCell id="1" parent="0"/>
                <mxCell id="DkstgB4WRuZEqI6Pgkgf-1" value="Equipment" style="rounded=1;whiteSpace=wrap;html=1;fontFamily=Comic Sans MS;fillColor=#e51400;strokeColor=#B20000;fontSize=16;fontColor=#ffffff;" parent="1" vertex="1">
                    <mxGeometry x="240" y="80" width="120" height="40" as="geometry"/>
                </mxCell>
                <mxCell id="DkstgB4WRuZEqI6Pgkgf-4" value="Host" style="rounded=1;whiteSpace=wrap;html=1;fontFamily=Comic Sans MS;fillColor=#e51400;fontColor=#ffffff;strokeColor=#B20000;fontSize=16;" parent="1" vertex="1">
                    <mxGeometry x="480" y="80" width="120" height="40" as="geometry"/>
                </mxCell>
                <mxCell id="DkstgB4WRuZEqI6Pgkgf-5" value="启动监听Socket" style="rounded=1;whiteSpace=wrap;html=1;fontFamily=Comic Sans MS;fillColor=#f5f5f5;fontColor=#333333;strokeColor=#666666;fontSize=16;" parent="1" vertex="1">
                    <mxGeometry x="240" y="200" width="120" height="40" as="geometry"/>
                </mxCell>
                <mxCell id="DkstgB4WRuZEqI6Pgkgf-10" value="" style="edgeStyle=none;html=1;fontSize=16;" parent="1" source="DkstgB4WRuZEqI6Pgkgf-6" target="DkstgB4WRuZEqI6Pgkgf-9" edge="1">
                    <mxGeometry relative="1" as="geometry"/>
                </mxCell>
                <mxCell id="DkstgB4WRuZEqI6Pgkgf-11" style="edgeStyle=none;html=1;fontSize=16;" parent="1" source="DkstgB4WRuZEqI6Pgkgf-6" target="DkstgB4WRuZEqI6Pgkgf-7" edge="1">
                    <mxGeometry relative="1" as="geometry"/>
                </mxCell>
                <mxCell id="DkstgB4WRuZEqI6Pgkgf-6" value="等待连接" style="rounded=1;whiteSpace=wrap;html=1;fontFamily=Comic Sans MS;fillColor=#f5f5f5;fontColor=#333333;strokeColor=#666666;fontSize=16;" parent="1" vertex="1">
                    <mxGeometry x="240" y="280" width="120" height="40" as="geometry"/>
                </mxCell>
                <mxCell id="DkstgB4WRuZEqI6Pgkgf-8" style="edgeStyle=none;html=1;exitX=0;exitY=0.5;exitDx=0;exitDy=0;fontSize=16;" parent="1" source="DkstgB4WRuZEqI6Pgkgf-7" target="DkstgB4WRuZEqI6Pgkgf-6" edge="1">
                    <mxGeometry relative="1" as="geometry"/>
                </mxCell>
                <mxCell id="DkstgB4WRuZEqI6Pgkgf-7" value="连接到Equipment" style="rounded=1;whiteSpace=wrap;html=1;fontFamily=Comic Sans MS;fillColor=#f5f5f5;fontColor=#333333;strokeColor=#666666;fontSize=16;" parent="1" vertex="1">
                    <mxGeometry x="480" y="280" width="120" height="40" as="geometry"/>
                </mxCell>
                <mxCell id="DkstgB4WRuZEqI6Pgkgf-14" style="edgeStyle=none;html=1;exitX=0.5;exitY=1;exitDx=0;exitDy=0;fontSize=16;" parent="1" source="DkstgB4WRuZEqI6Pgkgf-9" target="DkstgB4WRuZEqI6Pgkgf-13" edge="1">
                    <mxGeometry relative="1" as="geometry"/>
                </mxCell>
                <mxCell id="DkstgB4WRuZEqI6Pgkgf-9" value="启动接收Socket" style="rounded=1;whiteSpace=wrap;html=1;fontFamily=Comic Sans MS;fillColor=#f5f5f5;fontColor=#333333;strokeColor=#666666;fontSize=16;" parent="1" vertex="1">
                    <mxGeometry x="240" y="360" width="120" height="40" as="geometry"/>
                </mxCell>
                <mxCell id="DkstgB4WRuZEqI6Pgkgf-15" style="edgeStyle=none;html=1;fontSize=16;" parent="1" source="DkstgB4WRuZEqI6Pgkgf-12" target="DkstgB4WRuZEqI6Pgkgf-13" edge="1">
                    <mxGeometry relative="1" as="geometry"/>
                </mxCell>
                <mxCell id="DkstgB4WRuZEqI6Pgkgf-12" value="Select 请求" style="rounded=1;whiteSpace=wrap;html=1;fontFamily=Comic Sans MS;fillColor=#f5f5f5;fontColor=#333333;strokeColor=#666666;fontSize=16;" parent="1" vertex="1">
                    <mxGeometry x="480" y="440" width="120" height="40" as="geometry"/>
                </mxCell>
                <mxCell id="DkstgB4WRuZEqI6Pgkgf-17" value="" style="edgeStyle=none;html=1;fontSize=16;" parent="1" source="DkstgB4WRuZEqI6Pgkgf-13" target="DkstgB4WRuZEqI6Pgkgf-16" edge="1">
                    <mxGeometry relative="1" as="geometry"/>
                </mxCell>
                <mxCell id="DkstgB4WRuZEqI6Pgkgf-13" value="等待接收" style="rounded=1;whiteSpace=wrap;html=1;fontFamily=Comic Sans MS;fillColor=#f5f5f5;fontColor=#333333;strokeColor=#666666;fontSize=16;" parent="1" vertex="1">
                    <mxGeometry x="240" y="440" width="120" height="40" as="geometry"/>
                </mxCell>
                <mxCell id="DkstgB4WRuZEqI6Pgkgf-16" value="Select 回复" style="rounded=1;whiteSpace=wrap;html=1;fontFamily=Comic Sans MS;fillColor=#f5f5f5;fontColor=#333333;strokeColor=#666666;fontSize=16;" parent="1" vertex="1">
                    <mxGeometry x="240" y="520" width="120" height="40" as="geometry"/>
                </mxCell>
            </root>
        </mxGraphModel>
    </diagram>
</mxfile>